<?xml version="1.0" encoding="utf-8"?>
<svg xmlns="http://www.w3.org/2000/svg" viewBox="0 0 290 290" width="300px" height="300px">
  <rect width="290" height="290" rx="32" ry="32" fill="#FFFFFF" style=""/>
  <rect x="10" y="10" width="270" height="270" rx="24" ry="24" fill="#2D5E35"/>
  <rect x="20" y="20" width="250" height="250" rx="17" ry="17" fill="none" stroke="#FFFFFF" style="stroke-width: 4px;"/>
  <g>
    <path d="M 34.919 184.309 L 34.919 139.63 L 39.499 139.63 L 49.041 169.466 L 49.041 139.63 L 53.414 139.63 L 53.414 184.309 L 48.691 184.309 L 39.292 155.173 L 39.292 184.309 L 34.919 184.309 Z M 61.696 161.817 L 57.64 160.416 C 58.097 157.286 58.881 154.97 59.994 153.466 C 61.108 151.962 62.762 151.211 64.956 151.211 C 66.949 151.211 68.434 151.663 69.409 152.568 C 70.385 153.472 71.071 154.62 71.469 156.012 C 71.866 157.403 72.065 159.958 72.065 163.676 L 72.018 173.673 C 72.018 176.518 72.089 178.615 72.232 179.966 C 72.375 181.317 72.643 182.765 73.035 184.309 L 68.614 184.309 C 68.497 183.74 68.354 182.897 68.185 181.779 C 68.11 181.272 68.057 180.937 68.025 180.774 C 67.262 182.196 66.446 183.263 65.577 183.973 C 64.707 184.685 63.779 185.041 62.793 185.041 C 61.055 185.041 59.684 184.137 58.682 182.328 C 57.681 180.52 57.18 178.234 57.18 175.471 C 57.18 173.642 57.408 172.012 57.863 170.579 C 58.319 169.147 58.958 168.05 59.78 167.287 C 60.602 166.526 61.786 165.86 63.334 165.291 C 65.423 164.54 66.87 163.839 67.676 163.189 L 67.676 162.335 C 67.676 160.69 67.464 159.517 67.04 158.815 C 66.615 158.114 65.815 157.763 64.638 157.763 C 63.843 157.763 63.223 158.063 62.777 158.663 C 62.332 159.262 61.972 160.314 61.696 161.817 Z M 67.676 168.765 C 67.103 169.132 66.196 169.569 64.956 170.077 C 63.716 170.584 62.905 171.081 62.523 171.569 C 61.94 172.362 61.648 173.368 61.648 174.586 C 61.648 175.786 61.882 176.822 62.348 177.695 C 62.814 178.569 63.408 179.006 64.129 179.006 C 64.935 179.006 65.703 178.498 66.435 177.482 C 66.976 176.71 67.331 175.765 67.501 174.648 C 67.617 173.917 67.676 172.525 67.676 170.473 L 67.676 168.765 Z M 84.217 151.942 L 84.217 158.769 L 81.163 158.769 L 81.163 171.813 C 81.163 174.455 81.193 175.994 81.251 176.431 C 81.309 176.868 81.442 177.228 81.649 177.512 C 81.855 177.797 82.107 177.94 82.404 177.94 C 82.818 177.94 83.417 177.665 84.201 177.117 L 84.583 183.761 C 83.544 184.614 82.367 185.041 81.053 185.041 C 80.247 185.041 79.52 184.781 78.873 184.263 C 78.227 183.745 77.752 183.075 77.45 182.252 C 77.148 181.43 76.939 180.317 76.822 178.914 C 76.727 177.918 76.679 175.907 76.679 172.881 L 76.679 158.769 L 74.628 158.769 L 74.628 151.942 L 76.679 151.942 L 76.679 145.512 L 81.163 140.514 L 81.163 151.942 L 84.217 151.942 Z M 98.434 184.309 L 98.434 179.464 C 97.819 181.19 97.011 182.551 96.009 183.547 C 95.007 184.543 93.95 185.041 92.836 185.041 C 91.702 185.041 90.684 184.563 89.783 183.608 C 88.882 182.653 88.23 181.312 87.827 179.584 C 87.424 177.858 87.223 175.471 87.223 172.423 L 87.223 151.942 L 91.691 151.942 L 91.691 166.815 C 91.691 171.367 91.773 174.156 91.937 175.182 C 92.102 176.207 92.402 177.02 92.836 177.619 C 93.271 178.219 93.822 178.519 94.491 178.519 C 95.254 178.519 95.938 178.117 96.542 177.315 C 97.146 176.512 97.56 175.516 97.782 174.328 C 98.005 173.139 98.116 170.229 98.116 165.597 L 98.116 151.942 L 102.585 151.942 L 102.585 184.309 L 98.434 184.309 Z M 111.488 184.309 L 107.019 184.309 L 107.019 151.942 L 111.17 151.942 L 111.17 156.545 C 111.88 154.371 112.519 152.939 113.087 152.247 C 113.653 151.556 114.297 151.211 115.018 151.211 C 116.036 151.211 117.017 151.749 117.961 152.826 L 116.577 160.293 C 115.824 159.359 115.124 158.892 114.478 158.892 C 113.852 158.892 113.322 159.221 112.887 159.881 C 112.453 160.542 112.111 161.736 111.862 163.463 C 111.613 165.19 111.488 168.807 111.488 174.313 L 111.488 184.309 Z M 129.666 174.008 L 134.118 175.44 C 133.546 178.569 132.642 180.952 131.407 182.587 C 130.172 184.223 128.626 185.041 126.771 185.041 C 123.834 185.041 121.661 183.202 120.251 179.525 C 119.137 176.579 118.581 172.86 118.581 168.37 C 118.581 163.006 119.312 158.805 120.775 155.767 C 122.238 152.73 124.089 151.211 126.326 151.211 C 128.839 151.211 130.821 152.801 132.274 155.981 C 133.726 159.16 134.42 164.032 134.357 170.595 L 123.161 170.595 C 123.193 173.135 123.553 175.111 124.242 176.523 C 124.931 177.935 125.79 178.641 126.818 178.641 C 127.518 178.641 128.107 178.275 128.584 177.543 C 129.061 176.812 129.422 175.633 129.666 174.008 Z M 129.92 165.352 C 129.888 162.874 129.554 160.989 128.918 159.699 C 128.282 158.409 127.508 157.763 126.596 157.763 C 125.621 157.763 124.815 158.444 124.179 159.806 C 123.543 161.167 123.23 163.016 123.241 165.352 L 129.92 165.352 Z M 166.895 184.309 L 161.774 184.309 L 159.738 174.16 L 150.419 174.16 L 148.495 184.309 L 143.501 184.309 L 152.582 139.63 L 157.56 139.63 L 166.895 184.309 Z M 158.227 166.632 L 155.015 150.053 L 151.866 166.632 L 158.227 166.632 Z M 169.359 147.553 L 169.359 139.63 L 173.828 139.63 L 173.828 147.553 L 169.359 147.553 Z M 169.359 184.309 L 169.359 151.942 L 173.828 151.942 L 173.828 184.309 L 169.359 184.309 Z M 182.683 184.309 L 178.215 184.309 L 178.215 151.942 L 182.365 151.942 L 182.365 156.545 C 183.076 154.371 183.714 152.939 184.282 152.247 C 184.849 151.556 185.493 151.211 186.214 151.211 C 187.232 151.211 188.213 151.749 189.156 152.826 L 187.773 160.293 C 187.02 159.359 186.32 158.892 185.673 158.892 C 185.048 158.892 184.518 159.221 184.083 159.881 C 183.648 160.542 183.306 161.736 183.057 163.463 C 182.808 165.19 182.683 168.807 182.683 174.313 L 182.683 184.309 Z M 206.57 184.309 L 202.419 184.309 L 202.419 179.555 C 201.73 181.404 200.917 182.78 199.979 183.684 C 199.04 184.589 198.094 185.041 197.14 185.041 C 195.2 185.041 193.538 183.542 192.154 180.545 C 190.77 177.548 190.079 173.367 190.079 168.003 C 190.079 162.518 190.752 158.348 192.098 155.494 C 193.445 152.638 195.146 151.211 197.203 151.211 C 199.09 151.211 200.723 152.714 202.101 155.721 L 202.101 139.63 L 206.57 139.63 L 206.57 184.309 Z M 194.643 167.425 C 194.643 170.879 194.892 173.378 195.39 174.922 C 196.111 177.157 197.119 178.274 198.412 178.274 C 199.441 178.274 200.315 177.436 201.036 175.761 C 201.757 174.084 202.117 171.58 202.117 168.248 C 202.117 164.53 201.768 161.853 201.068 160.217 C 200.368 158.581 199.472 157.763 198.38 157.763 C 197.32 157.763 196.432 158.571 195.716 160.187 C 195.001 161.802 194.643 164.215 194.643 167.425 Z M 222.092 184.309 L 222.092 179.464 C 221.477 181.19 220.669 182.551 219.667 183.547 C 218.665 184.543 217.607 185.041 216.494 185.041 C 215.36 185.041 214.342 184.563 213.44 183.608 C 212.539 182.653 211.888 181.312 211.485 179.584 C 211.082 177.858 210.88 175.471 210.88 172.423 L 210.88 151.942 L 215.349 151.942 L 215.349 166.815 C 215.349 171.367 215.431 174.156 215.596 175.182 C 215.76 176.207 216.059 177.02 216.494 177.619 C 216.929 178.219 217.48 178.519 218.148 178.519 C 218.911 178.519 219.595 178.117 220.2 177.315 C 220.804 176.512 221.217 175.516 221.44 174.328 C 221.663 173.139 221.774 170.229 221.774 165.597 L 221.774 151.942 L 226.243 151.942 L 226.243 184.309 L 222.092 184.309 Z M 245.597 161.512 L 241.193 163.036 C 241.044 161.35 240.707 160.08 240.182 159.226 C 239.657 158.373 238.976 157.946 238.139 157.946 C 237.026 157.946 236.138 158.683 235.475 160.156 C 234.812 161.629 234.481 164.093 234.481 167.547 C 234.481 171.387 234.818 174.099 235.491 175.684 C 236.164 177.269 237.068 178.062 238.203 178.062 C 239.051 178.062 239.745 177.599 240.286 176.674 C 240.827 175.75 241.208 174.16 241.431 171.905 L 245.821 173.337 C 245.364 177.198 244.49 180.113 243.197 182.084 C 241.903 184.055 240.169 185.041 237.996 185.041 C 235.525 185.041 233.556 183.547 232.088 180.56 C 230.619 177.573 229.885 173.439 229.885 168.156 C 229.885 162.813 230.622 158.652 232.096 155.676 C 233.569 152.699 235.563 151.211 238.075 151.211 C 240.132 151.211 241.768 152.059 242.981 153.756 C 244.195 155.452 245.067 158.037 245.597 161.512 Z M 256.729 151.942 L 256.729 158.769 L 253.675 158.769 L 253.675 171.813 C 253.675 174.455 253.704 175.994 253.763 176.431 C 253.821 176.868 253.954 177.228 254.16 177.512 C 254.367 177.797 254.619 177.94 254.916 177.94 C 255.329 177.94 255.928 177.665 256.713 177.117 L 257.094 183.761 C 256.055 184.614 254.878 185.041 253.564 185.041 C 252.758 185.041 252.032 184.781 251.385 184.263 C 250.738 183.745 250.264 183.075 249.962 182.252 C 249.66 181.43 249.45 180.317 249.334 178.914 C 249.238 177.918 249.191 175.907 249.191 172.881 L 249.191 158.769 L 247.139 158.769 L 247.139 151.942 L 249.191 151.942 L 249.191 145.512 L 253.675 140.514 L 253.675 151.942 L 256.729 151.942 Z" style="fill: rgb(255, 255, 255); line-height: 71.9527px; text-wrap-mode: nowrap;"/>
    <path d="M 45.246 223.748 L 53.315 203.451 L 56.31 203.451 L 64.909 223.748 L 61.742 223.748 L 59.291 217.601 L 50.505 217.601 L 48.198 223.748 L 45.246 223.748 Z M 51.308 215.413 L 58.431 215.413 L 56.238 209.792 C 55.57 208.084 55.073 206.681 54.748 205.583 C 54.48 206.884 54.103 208.176 53.616 209.46 L 51.308 215.413 Z M 66.814 206.317 L 66.814 203.451 L 69.393 203.451 L 69.393 206.317 L 66.814 206.317 Z M 66.814 223.748 L 66.814 209.044 L 69.393 209.044 L 69.393 223.748 L 66.814 223.748 Z M 73.289 223.748 L 73.289 209.044 L 75.611 209.044 L 75.611 211.274 C 76.204 210.231 76.751 209.543 77.253 209.211 C 77.754 208.878 78.305 208.712 78.908 208.712 C 79.777 208.712 80.661 208.979 81.559 209.515 L 80.67 211.828 C 80.04 211.467 79.409 211.287 78.779 211.287 C 78.215 211.287 77.708 211.451 77.259 211.779 C 76.81 212.106 76.49 212.561 76.299 213.142 C 76.012 214.028 75.869 214.998 75.869 216.049 L 75.869 223.748 L 73.289 223.748 Z M 92.967 223.748 L 92.967 221.893 C 92.002 223.351 90.584 224.08 88.711 224.08 C 87.497 224.08 86.382 223.757 85.364 223.111 C 84.347 222.465 83.559 221.562 83 220.404 C 82.441 219.245 82.162 217.914 82.162 216.41 C 82.162 214.942 82.415 213.611 82.921 212.416 C 83.427 211.22 84.187 210.304 85.2 209.667 C 86.212 209.03 87.344 208.712 88.596 208.712 C 89.514 208.712 90.331 208.899 91.047 209.273 C 91.764 209.647 92.347 210.133 92.796 210.733 L 92.796 203.451 L 95.362 203.451 L 95.362 223.748 L 92.967 223.748 Z M 84.813 216.41 C 84.813 218.293 85.224 219.7 86.046 220.633 C 86.867 221.565 87.837 222.031 88.955 222.031 C 90.082 222.031 91.04 221.586 91.828 220.695 C 92.616 219.804 93.01 218.445 93.01 216.618 C 93.01 214.606 92.609 213.129 91.807 212.187 C 91.004 211.245 90.015 210.774 88.84 210.774 C 87.694 210.774 86.736 211.227 85.967 212.131 C 85.198 213.036 84.813 214.462 84.813 216.41 Z M 109.392 223.748 L 109.392 221.588 C 108.208 223.249 106.598 224.08 104.563 224.08 C 103.665 224.08 102.826 223.914 102.048 223.582 C 101.269 223.25 100.69 222.832 100.313 222.329 C 99.936 221.826 99.671 221.21 99.518 220.48 C 99.413 219.991 99.36 219.216 99.36 218.155 L 99.36 209.044 L 101.94 209.044 L 101.94 217.199 C 101.94 218.5 101.993 219.377 102.098 219.83 C 102.26 220.485 102.604 221 103.13 221.373 C 103.655 221.747 104.305 221.934 105.078 221.934 C 105.853 221.934 106.579 221.743 107.257 221.36 C 107.935 220.976 108.416 220.455 108.697 219.795 C 108.979 219.135 109.121 218.177 109.121 216.922 L 109.121 209.044 L 111.701 209.044 L 111.701 223.748 L 109.392 223.748 Z M 125.674 218.362 L 128.211 218.68 C 127.934 220.369 127.224 221.692 126.083 222.647 C 124.941 223.602 123.539 224.08 121.876 224.08 C 119.793 224.08 118.119 223.422 116.853 222.107 C 115.587 220.792 114.953 218.907 114.953 216.451 C 114.953 214.864 115.226 213.474 115.771 212.284 C 116.315 211.093 117.144 210.2 118.258 209.605 C 119.371 209.009 120.582 208.712 121.891 208.712 C 123.544 208.712 124.896 209.116 125.947 209.924 C 126.998 210.731 127.671 211.878 127.967 213.364 L 125.459 213.737 C 125.22 212.75 124.798 212.007 124.191 211.509 C 123.584 211.01 122.851 210.761 121.991 210.761 C 120.691 210.761 119.636 211.211 118.824 212.111 C 118.012 213.011 117.606 214.435 117.606 216.383 C 117.606 218.357 117.997 219.793 118.781 220.688 C 119.564 221.584 120.587 222.031 121.848 222.031 C 122.861 222.031 123.706 221.731 124.384 221.131 C 125.062 220.531 125.493 219.608 125.674 218.362 Z M 136.047 221.519 L 136.42 223.72 C 135.694 223.868 135.045 223.941 134.472 223.941 C 133.535 223.941 132.809 223.798 132.292 223.513 C 131.776 223.227 131.413 222.85 131.203 222.384 C 130.993 221.918 130.889 220.937 130.889 219.442 L 130.889 210.983 L 128.996 210.983 L 128.996 209.044 L 130.889 209.044 L 130.889 205.403 L 133.454 203.907 L 133.454 209.044 L 136.047 209.044 L 136.047 210.983 L 133.454 210.983 L 133.454 219.581 C 133.454 220.292 133.499 220.748 133.59 220.951 C 133.681 221.154 133.829 221.316 134.034 221.436 C 134.239 221.556 134.533 221.616 134.915 221.616 C 135.202 221.616 135.579 221.584 136.047 221.519 Z M 158.734 221.353 C 157.884 222.266 156.957 222.951 155.954 223.409 C 154.951 223.866 153.866 224.094 152.7 224.094 C 150.551 224.094 148.845 223.393 147.584 221.99 C 146.562 220.845 146.051 219.566 146.051 218.155 C 146.051 216.899 146.469 215.766 147.305 214.755 C 148.141 213.745 149.39 212.856 151.052 212.09 C 150.106 211.038 149.475 210.184 149.16 209.529 C 148.845 208.873 148.688 208.241 148.688 207.632 C 148.688 206.413 149.182 205.354 150.171 204.454 C 151.16 203.554 152.404 203.104 153.905 203.104 C 155.338 203.104 156.51 203.529 157.423 204.378 C 158.336 205.228 158.792 206.248 158.792 207.439 C 158.792 209.367 157.469 211.015 154.822 212.38 L 158.591 217.019 C 159.021 216.206 159.356 215.265 159.594 214.194 L 162.274 214.748 C 161.816 216.52 161.195 217.979 160.412 219.124 C 161.377 220.361 162.471 221.399 163.694 222.239 L 161.959 224.219 C 160.918 223.573 159.843 222.617 158.734 221.353 Z M 153.489 210.774 C 154.607 210.138 155.331 209.579 155.66 209.099 C 155.99 208.619 156.155 208.089 156.155 207.507 C 156.155 206.815 155.928 206.25 155.474 205.811 C 155.02 205.373 154.454 205.154 153.776 205.154 C 153.078 205.154 152.498 205.371 152.035 205.804 C 151.571 206.238 151.339 206.769 151.339 207.397 C 151.339 207.71 151.423 208.04 151.59 208.386 C 151.757 208.733 152.008 209.1 152.342 209.487 L 153.489 210.774 Z M 157.115 219.386 L 152.385 213.724 C 150.99 214.527 150.049 215.272 149.562 215.96 C 149.075 216.648 148.831 217.328 148.831 218.002 C 148.831 218.823 149.17 219.677 149.849 220.563 C 150.527 221.449 151.487 221.893 152.73 221.893 C 153.503 221.893 154.304 221.66 155.13 221.194 C 155.956 220.727 156.618 220.125 157.115 219.386 Z M 174.79 223.748 L 174.79 203.451 L 182.027 203.451 C 183.661 203.451 184.908 203.548 185.768 203.741 C 186.972 204.009 187.999 204.494 188.85 205.195 C 189.958 206.1 190.787 207.256 191.336 208.663 C 191.886 210.071 192.16 211.679 192.16 213.488 C 192.16 215.03 191.974 216.396 191.602 217.587 C 191.228 218.778 190.75 219.763 190.168 220.543 C 189.585 221.322 188.947 221.936 188.254 222.384 C 187.562 222.831 186.726 223.171 185.747 223.401 C 184.767 223.632 183.642 223.748 182.371 223.748 L 174.79 223.748 Z M 177.57 221.353 L 182.056 221.353 C 183.442 221.353 184.528 221.228 185.316 220.979 C 186.104 220.729 186.733 220.379 187.201 219.927 C 187.861 219.29 188.374 218.433 188.742 217.358 C 189.109 216.283 189.293 214.979 189.293 213.447 C 189.293 211.324 188.933 209.693 188.211 208.553 C 187.49 207.413 186.613 206.649 185.581 206.261 C 184.836 205.984 183.637 205.846 181.985 205.846 L 177.57 205.846 L 177.57 221.353 Z M 195.628 223.748 L 195.628 209.044 L 197.95 209.044 L 197.95 211.274 C 198.542 210.231 199.089 209.543 199.591 209.211 C 200.092 208.878 200.644 208.712 201.246 208.712 C 202.115 208.712 202.999 208.979 203.897 209.515 L 203.009 211.828 C 202.378 211.467 201.747 211.287 201.117 211.287 C 200.553 211.287 200.047 211.451 199.598 211.779 C 199.149 212.106 198.829 212.561 198.638 213.142 C 198.351 214.028 198.208 214.998 198.208 216.049 L 198.208 223.748 L 195.628 223.748 Z M 205.312 229.411 L 205.025 227.07 C 205.589 227.218 206.081 227.292 206.501 227.292 C 207.075 227.292 207.534 227.2 207.877 227.016 C 208.221 226.831 208.503 226.572 208.723 226.24 C 208.886 225.991 209.148 225.372 209.511 224.385 C 209.559 224.246 209.635 224.043 209.74 223.775 L 203.964 209.044 L 206.745 209.044 L 209.912 217.559 C 210.323 218.639 210.691 219.774 211.016 220.965 C 211.312 219.821 211.666 218.704 212.077 217.614 L 215.33 209.044 L 217.91 209.044 L 212.12 223.997 C 211.499 225.612 211.016 226.725 210.672 227.334 C 210.214 228.155 209.688 228.758 209.096 229.14 C 208.503 229.524 207.796 229.716 206.975 229.716 C 206.478 229.716 205.924 229.614 205.312 229.411 Z M 230.524 219.013 L 233.19 219.331 C 232.77 220.836 231.991 222.003 230.854 222.834 C 229.717 223.665 228.265 224.08 226.497 224.08 C 224.271 224.08 222.505 223.418 221.201 222.093 C 219.897 220.768 219.245 218.911 219.245 216.52 C 219.245 214.047 219.904 212.127 221.222 210.761 C 222.541 209.395 224.251 208.712 226.354 208.712 C 228.389 208.712 230.051 209.381 231.341 210.72 C 232.631 212.058 233.275 213.941 233.275 216.368 C 233.275 216.516 233.271 216.738 233.262 217.033 L 221.911 217.033 C 222.006 218.648 222.479 219.885 223.329 220.743 C 224.18 221.602 225.24 222.031 226.511 222.031 C 227.457 222.031 228.265 221.791 228.933 221.311 C 229.602 220.831 230.132 220.065 230.524 219.013 Z M 222.053 214.984 L 230.553 214.984 C 230.438 213.747 230.113 212.82 229.578 212.201 C 228.756 211.241 227.691 210.761 226.382 210.761 C 225.197 210.761 224.201 211.144 223.394 211.911 C 222.586 212.676 222.139 213.701 222.053 214.984 Z M 236.4 223.748 L 236.4 209.044 L 238.722 209.044 L 238.722 211.274 C 239.315 210.231 239.862 209.543 240.363 209.211 C 240.865 208.878 241.417 208.712 242.018 208.712 C 242.888 208.712 243.772 208.979 244.67 209.515 L 243.782 211.828 C 243.151 211.467 242.52 211.287 241.889 211.287 C 241.326 211.287 240.82 211.451 240.37 211.779 C 239.922 212.106 239.602 212.561 239.41 213.142 C 239.124 214.028 238.98 214.998 238.98 216.049 L 238.98 223.748 L 236.4 223.748 Z" style="fill: rgb(255, 255, 255); text-wrap-mode: nowrap;"/>
    <path d="M 104.107 244.987 L 106.887 245.665 C 106.304 247.871 105.255 249.553 103.741 250.711 C 102.226 251.87 100.375 252.449 98.188 252.449 C 95.923 252.449 94.081 252.004 92.662 251.112 C 91.244 250.222 90.164 248.932 89.423 247.243 C 88.683 245.554 88.313 243.74 88.313 241.802 C 88.313 239.688 88.731 237.844 89.567 236.271 C 90.403 234.697 91.592 233.502 93.135 232.685 C 94.678 231.868 96.377 231.459 98.231 231.459 C 100.332 231.459 102.1 231.976 103.533 233.01 C 104.967 234.044 105.965 235.498 106.529 237.371 L 103.791 237.994 C 103.304 236.518 102.597 235.443 101.67 234.769 C 100.744 234.095 99.578 233.758 98.173 233.758 C 96.558 233.758 95.209 234.132 94.125 234.879 C 93.04 235.627 92.278 236.631 91.838 237.891 C 91.399 239.151 91.179 240.45 91.179 241.788 C 91.179 243.514 91.439 245.021 91.96 246.308 C 92.481 247.596 93.291 248.559 94.39 249.195 C 95.489 249.832 96.678 250.15 97.958 250.15 C 99.515 250.15 100.834 249.717 101.914 248.849 C 102.993 247.982 103.724 246.694 104.107 244.987 Z M 109.919 252.103 L 109.919 231.806 L 112.499 231.806 L 112.499 252.103 L 109.919 252.103 Z M 126.921 247.368 L 129.585 247.687 C 129.165 249.191 128.387 250.358 127.25 251.189 C 126.113 252.02 124.661 252.435 122.893 252.435 C 120.667 252.435 118.901 251.773 117.597 250.448 C 116.293 249.124 115.641 247.266 115.641 244.875 C 115.641 242.402 116.3 240.482 117.618 239.116 C 118.937 237.75 120.647 237.067 122.75 237.067 C 124.785 237.067 126.447 237.736 127.737 239.075 C 129.027 240.413 129.672 242.296 129.672 244.723 C 129.672 244.871 129.668 245.093 129.658 245.388 L 118.307 245.388 C 118.402 247.003 118.875 248.24 119.725 249.098 C 120.576 249.957 121.636 250.386 122.907 250.386 C 123.853 250.386 124.661 250.146 125.329 249.666 C 125.998 249.186 126.529 248.42 126.921 247.368 Z M 118.449 243.339 L 126.949 243.339 C 126.834 242.102 126.509 241.175 125.974 240.556 C 125.152 239.596 124.087 239.116 122.778 239.116 C 121.593 239.116 120.597 239.499 119.79 240.266 C 118.982 241.031 118.535 242.056 118.449 243.339 Z M 142.757 250.289 C 141.802 251.074 140.882 251.628 139.998 251.951 C 139.115 252.274 138.166 252.435 137.153 252.435 C 135.481 252.435 134.197 252.04 133.299 251.251 C 132.401 250.462 131.951 249.454 131.951 248.226 C 131.951 247.506 132.121 246.848 132.46 246.254 C 132.799 245.658 133.243 245.181 133.792 244.821 C 134.342 244.46 134.961 244.188 135.649 244.003 C 136.155 243.874 136.92 243.75 137.941 243.63 C 140.025 243.389 141.558 243.103 142.542 242.771 C 142.552 242.429 142.557 242.213 142.557 242.121 C 142.557 241.105 142.313 240.39 141.825 239.974 C 141.166 239.411 140.187 239.129 138.888 239.129 C 137.674 239.129 136.778 239.335 136.2 239.746 C 135.622 240.157 135.195 240.883 134.918 241.926 L 132.395 241.594 C 132.625 240.551 133.002 239.709 133.527 239.068 C 134.053 238.426 134.812 237.932 135.806 237.586 C 136.8 237.24 137.951 237.067 139.26 237.067 C 140.56 237.067 141.616 237.214 142.428 237.51 C 143.24 237.805 143.837 238.176 144.22 238.624 C 144.602 239.072 144.869 239.638 145.022 240.32 C 145.108 240.745 145.151 241.511 145.151 242.619 L 145.151 245.942 C 145.151 248.259 145.206 249.724 145.316 250.338 C 145.426 250.951 145.643 251.54 145.968 252.103 L 143.273 252.103 C 143.006 251.586 142.834 250.981 142.757 250.289 Z M 142.542 244.723 C 141.606 245.093 140.202 245.407 138.329 245.665 C 137.268 245.812 136.518 245.979 136.079 246.163 C 135.639 246.348 135.3 246.618 135.061 246.974 C 134.822 247.329 134.703 247.723 134.703 248.157 C 134.703 248.822 134.964 249.375 135.484 249.818 C 136.005 250.261 136.767 250.483 137.77 250.483 C 138.763 250.483 139.647 250.273 140.422 249.853 C 141.195 249.433 141.764 248.858 142.127 248.129 C 142.404 247.566 142.542 246.735 142.542 245.637 L 142.542 244.723 Z M 149.15 252.103 L 149.15 237.399 L 151.472 237.399 L 151.472 239.49 C 152.589 237.874 154.204 237.067 156.316 237.067 C 157.233 237.067 158.076 237.226 158.845 237.545 C 159.615 237.863 160.191 238.281 160.573 238.797 C 160.955 239.314 161.222 239.928 161.375 240.639 C 161.471 241.1 161.519 241.908 161.519 243.062 L 161.519 252.103 L 158.939 252.103 L 158.939 243.159 C 158.939 242.143 158.839 241.384 158.638 240.881 C 158.437 240.378 158.081 239.977 157.57 239.676 C 157.059 239.377 156.459 239.227 155.771 239.227 C 154.672 239.227 153.724 239.564 152.927 240.237 C 152.129 240.911 151.73 242.189 151.73 244.072 L 151.73 252.103 L 149.15 252.103 Z M 165.489 234.672 L 165.489 231.806 L 168.068 231.806 L 168.068 234.672 L 165.489 234.672 Z M 165.489 252.103 L 165.489 237.399 L 168.068 237.399 L 168.068 252.103 L 165.489 252.103 Z M 171.993 252.103 L 171.993 237.399 L 174.315 237.399 L 174.315 239.49 C 175.433 237.874 177.047 237.067 179.159 237.067 C 180.076 237.067 180.919 237.226 181.689 237.545 C 182.458 237.863 183.033 238.281 183.415 238.797 C 183.798 239.314 184.065 239.928 184.218 240.639 C 184.314 241.1 184.362 241.908 184.362 243.062 L 184.362 252.103 L 181.782 252.103 L 181.782 243.159 C 181.782 242.143 181.682 241.384 181.48 240.881 C 181.28 240.378 180.924 239.977 180.413 239.676 C 179.902 239.377 179.302 239.227 178.614 239.227 C 177.516 239.227 176.567 239.564 175.769 240.237 C 174.972 240.911 174.573 242.189 174.573 244.072 L 174.573 252.103 L 171.993 252.103 Z M 187.844 253.321 L 190.353 253.682 C 190.458 254.429 190.749 254.973 191.227 255.315 C 191.867 255.776 192.742 256.007 193.85 256.007 C 195.045 256.007 195.966 255.776 196.616 255.315 C 197.266 254.853 197.705 254.207 197.934 253.377 C 198.068 252.869 198.13 251.803 198.121 250.179 C 196.993 251.462 195.588 252.103 193.907 252.103 C 191.814 252.103 190.195 251.374 189.048 249.915 C 187.902 248.457 187.329 246.708 187.329 244.668 C 187.329 243.265 187.591 241.97 188.117 240.784 C 188.643 239.598 189.404 238.682 190.402 238.036 C 191.401 237.39 192.574 237.067 193.921 237.067 C 195.718 237.067 197.198 237.768 198.364 239.171 L 198.364 237.399 L 200.744 237.399 L 200.744 250.109 C 200.744 252.398 200.502 254.021 200.019 254.976 C 199.537 255.931 198.773 256.686 197.727 257.239 C 196.681 257.793 195.393 258.071 193.864 258.071 C 192.049 258.071 190.582 257.676 189.464 256.887 C 188.346 256.098 187.806 254.909 187.844 253.321 Z M 189.98 244.488 C 189.98 246.417 190.376 247.825 191.17 248.71 C 191.963 249.597 192.957 250.04 194.151 250.04 C 195.336 250.04 196.329 249.599 197.131 248.717 C 197.934 247.836 198.336 246.454 198.336 244.571 C 198.336 242.771 197.922 241.414 197.096 240.501 C 196.27 239.586 195.274 239.129 194.108 239.129 C 192.961 239.129 191.987 239.579 191.184 240.479 C 190.381 241.379 189.98 242.715 189.98 244.488 Z" style="fill: rgb(255, 255, 255); text-wrap-mode: nowrap;"/>
  </g>
  <path transform="matrix(1.048295, 0, 0, 1.012681, 98.656589, 73.871012)" style="fill: rgb(255, 255, 255); text-wrap-mode: nowrap;"/>
  <g transform="matrix(0.76287, 0, 0, 0.640686, -196.002874, -8.36322)" style="">
    <g>
      <path d="M 447 63 C 442.834 83.833 437.833 88.833 417 93 C 437.833 97.167 442.834 102.167 447 123 C 451.167 102.167 456.168 97.167 477 93 C 456.168 88.833 451.167 83.833 447 63 Z" fill="#FFFFFF" style="stroke-width: 1; transform-origin: 36.083px 93px;"/>
      <path d="M 489.5 105.5 C 487.114 117.432 483.932 120.614 472 123 C 483.932 125.386 487.114 128.568 489.5 140.5 C 491.886 128.568 495.069 125.386 507 123 C 495.069 120.614 491.886 117.432 489.5 105.5 Z" fill="#FFFFFF" style="stroke-width: 1;"/>
      <path d="M 404.5 105.5 C 402.114 117.432 398.932 120.614 387 123 C 398.932 125.386 402.114 128.568 404.5 140.5 C 406.886 128.568 410.069 125.386 422 123 C 410.069 120.614 406.886 117.432 404.5 105.5 Z" fill="#FFFFFF" style="stroke-width: 1;"/>
    </g>
    <g style="" transform="matrix(0.955612, 0, 0, 1, 19.841408, 0)">
      <path d="M 397 162.905 C 402.357 160.187 418.429 150.219 430.928 148.407 C 445.215 146.594 455.928 159.28 468.429 161.092 C 480.928 162.905 494.322 157.468 497 155.656 C 494.322 158.374 480.928 173.779 468.429 171.967 C 455.928 170.154 445.215 161.092 430.928 159.28 C 418.429 157.468 397.893 162.905 397 162.905 Z" fill="#FFFFFF" style=""/>
      <path d="M 397 202.675 C 402.357 199.957 418.429 189.989 430.928 188.177 C 445.215 186.364 455.928 199.05 468.429 200.862 C 480.928 202.675 494.322 197.238 497 195.426 C 494.322 198.144 480.928 213.549 468.429 211.737 C 455.928 209.924 445.215 200.862 430.928 199.05 C 418.429 197.238 397.893 202.675 397 202.675 Z" fill="#FFFFFF" style="stroke-width: 1;"/>
      <path d="M 397 182.79 C 402.357 180.072 418.429 170.104 430.928 168.292 C 445.215 166.479 455.928 179.165 468.429 180.977 C 480.928 182.79 494.322 177.353 497 175.541 C 494.322 178.259 480.928 193.664 468.429 191.852 C 455.928 190.039 445.215 180.977 430.928 179.165 C 418.429 177.353 397.893 182.79 397 182.79 Z" fill="#FFFFFF" style="stroke-width: 1;"/>
    </g>
  </g>
</svg>