<?xml version="1.0" encoding="utf-8"?>
<svg xmlns="http://www.w3.org/2000/svg" viewBox="0 0 560 280" width="560" height="280">
  <rect x="0" y="0" width="560" height="280" rx="32" ry="32" fill="#FFFFFF"/>
  <rect x="14" y="14" width="532" height="252" rx="24" ry="24" fill="#2D5E35"/>
  <g>
    <path d="M 49.395 122.959 L 49.395 67.712 L 55.828 67.712 L 69.23 104.606 L 69.23 67.712 L 75.371 67.712 L 75.371 122.959 L 68.737 122.959 L 55.537 86.932 L 55.537 122.959 L 49.395 122.959 Z M 87.005 95.148 L 81.31 93.414 C 81.95 89.545 83.052 86.681 84.616 84.821 C 86.179 82.962 88.502 82.032 91.584 82.032 C 94.384 82.032 96.468 82.592 97.838 83.711 C 99.208 84.829 100.172 86.248 100.731 87.969 C 101.289 89.69 101.568 92.849 101.568 97.446 L 101.501 109.808 C 101.501 113.325 101.602 115.918 101.803 117.589 C 102.004 119.259 102.38 121.049 102.931 122.959 L 96.721 122.959 C 96.558 122.255 96.357 121.212 96.118 119.83 C 96.014 119.203 95.94 118.789 95.895 118.588 C 94.823 120.346 93.677 121.665 92.455 122.543 C 91.235 123.423 89.932 123.863 88.546 123.863 C 86.104 123.863 84.18 122.745 82.773 120.51 C 81.365 118.273 80.662 115.446 80.662 112.03 C 80.662 109.769 80.982 107.753 81.622 105.982 C 82.263 104.211 83.16 102.854 84.314 101.911 C 85.468 100.97 87.132 100.147 89.306 99.443 C 92.24 98.514 94.272 97.648 95.404 96.843 L 95.404 95.788 C 95.404 93.754 95.106 92.303 94.51 91.436 C 93.915 90.568 92.791 90.135 91.138 90.135 C 90.021 90.135 89.15 90.505 88.525 91.247 C 87.899 91.988 87.392 93.288 87.005 95.148 Z M 95.404 103.739 C 94.6 104.192 93.327 104.733 91.584 105.361 C 89.842 105.988 88.703 106.603 88.167 107.206 C 87.348 108.186 86.938 109.43 86.938 110.937 C 86.938 112.42 87.266 113.701 87.922 114.781 C 88.577 115.861 89.41 116.401 90.423 116.401 C 91.555 116.401 92.634 115.773 93.662 114.517 C 94.421 113.563 94.92 112.394 95.158 111.012 C 95.322 110.108 95.404 108.388 95.404 105.85 L 95.404 103.739 Z M 118.631 82.937 L 118.631 91.379 L 114.342 91.379 L 114.342 107.508 C 114.342 110.774 114.383 112.678 114.465 113.218 C 114.547 113.758 114.733 114.203 115.024 114.555 C 115.314 114.907 115.668 115.083 116.085 115.083 C 116.665 115.083 117.506 114.744 118.608 114.065 L 119.144 122.281 C 117.685 123.336 116.032 123.863 114.187 123.863 C 113.055 123.863 112.034 123.543 111.126 122.902 C 110.218 122.261 109.551 121.433 109.127 120.415 C 108.702 119.398 108.409 118.022 108.245 116.288 C 108.111 115.057 108.044 112.57 108.044 108.828 L 108.044 91.379 L 105.162 91.379 L 105.162 82.937 L 108.044 82.937 L 108.044 74.986 L 114.342 68.806 L 114.342 82.937 L 118.631 82.937 Z M 138.6 122.959 L 138.6 116.968 C 137.736 119.102 136.601 120.786 135.194 122.017 C 133.786 123.248 132.301 123.863 130.737 123.863 C 129.144 123.863 127.715 123.273 126.449 122.092 C 125.183 120.911 124.268 119.253 123.702 117.117 C 123.136 114.982 122.853 112.03 122.853 108.261 L 122.853 82.937 L 129.129 82.937 L 129.129 101.328 C 129.129 106.956 129.245 110.404 129.476 111.673 C 129.706 112.941 130.127 113.945 130.737 114.687 C 131.348 115.428 132.123 115.799 133.061 115.799 C 134.133 115.799 135.093 115.303 135.942 114.311 C 136.791 113.318 137.371 112.087 137.684 110.618 C 137.997 109.147 138.154 105.548 138.154 99.821 L 138.154 82.937 L 144.43 82.937 L 144.43 122.959 L 138.6 122.959 Z M 156.936 122.959 L 150.659 122.959 L 150.659 82.937 L 156.49 82.937 L 156.49 88.628 C 157.487 85.94 158.384 84.169 159.181 83.314 C 159.977 82.46 160.881 82.032 161.894 82.032 C 163.323 82.032 164.701 82.698 166.027 84.03 L 164.083 93.263 C 163.026 92.108 162.043 91.53 161.135 91.53 C 160.256 91.53 159.512 91.938 158.901 92.754 C 158.291 93.571 157.811 95.047 157.461 97.183 C 157.111 99.318 156.936 103.79 156.936 110.599 L 156.936 122.959 Z M 182.466 110.221 L 188.719 111.992 C 187.915 115.862 186.646 118.807 184.911 120.829 C 183.176 122.852 181.006 123.863 178.4 123.863 C 174.275 123.863 171.223 121.59 169.243 117.043 C 167.679 113.4 166.897 108.802 166.897 103.25 C 166.897 96.617 167.925 91.423 169.98 87.667 C 172.034 83.911 174.633 82.032 177.775 82.032 C 181.304 82.032 184.089 83.999 186.128 87.931 C 188.168 91.862 189.143 97.886 189.054 106.001 L 173.33 106.001 C 173.375 109.142 173.881 111.585 174.849 113.331 C 175.817 115.077 177.023 115.95 178.467 115.95 C 179.45 115.95 180.277 115.497 180.947 114.592 C 181.617 113.688 182.123 112.231 182.466 110.221 Z M 182.823 99.519 C 182.778 96.454 182.309 94.124 181.416 92.529 C 180.522 90.933 179.435 90.135 178.155 90.135 C 176.785 90.135 175.653 90.977 174.759 92.661 C 173.866 94.344 173.427 96.63 173.442 99.519 L 182.823 99.519 Z M 234.752 122.959 L 227.561 122.959 L 224.701 110.41 L 211.613 110.41 L 208.911 122.959 L 201.897 122.959 L 214.651 67.712 L 221.642 67.712 L 234.752 122.959 Z M 222.58 101.101 L 218.068 80.601 L 213.646 101.101 L 222.58 101.101 Z M 238.216 77.51 L 238.216 67.712 L 244.492 67.712 L 244.492 77.51 L 238.216 77.51 Z M 238.216 122.959 L 238.216 82.937 L 244.492 82.937 L 244.492 122.959 L 238.216 122.959 Z M 256.934 122.959 L 250.657 122.959 L 250.657 82.937 L 256.488 82.937 L 256.488 88.628 C 257.485 85.94 258.382 84.169 259.178 83.314 C 259.975 82.46 260.88 82.032 261.892 82.032 C 263.322 82.032 264.699 82.698 266.025 84.03 L 264.081 93.263 C 263.024 92.108 262.041 91.53 261.133 91.53 C 260.254 91.53 259.51 91.938 258.899 92.754 C 258.289 93.571 257.809 95.047 257.459 97.183 C 257.109 99.318 256.934 103.79 256.934 110.599 L 256.934 122.959 Z M 290.478 122.959 L 284.649 122.959 L 284.649 117.081 C 283.681 119.367 282.538 121.069 281.221 122.186 C 279.902 123.304 278.573 123.863 277.233 123.863 C 274.509 123.863 272.175 122.01 270.231 118.304 C 268.288 114.599 267.317 109.429 267.317 102.797 C 267.317 96.014 268.262 90.858 270.153 87.329 C 272.044 83.798 274.434 82.032 277.323 82.032 C 279.973 82.032 282.266 83.892 284.202 87.61 L 284.202 67.712 L 290.478 67.712 L 290.478 122.959 Z M 273.727 102.081 C 273.727 106.352 274.077 109.443 274.777 111.352 C 275.789 114.115 277.204 115.497 279.021 115.497 C 280.465 115.497 281.693 114.461 282.706 112.389 C 283.718 110.316 284.225 107.219 284.225 103.099 C 284.225 98.502 283.733 95.192 282.751 93.169 C 281.767 91.146 280.509 90.135 278.976 90.135 C 277.487 90.135 276.24 91.134 275.235 93.131 C 274.23 95.129 273.727 98.112 273.727 102.081 Z M 312.28 122.959 L 312.28 116.968 C 311.416 119.102 310.281 120.786 308.874 122.017 C 307.467 123.248 305.982 123.863 304.418 123.863 C 302.824 123.863 301.395 123.273 300.129 122.092 C 298.864 120.911 297.948 119.253 297.382 117.117 C 296.816 114.982 296.534 112.03 296.534 108.261 L 296.534 82.937 L 302.81 82.937 L 302.81 101.328 C 302.81 106.956 302.925 110.404 303.156 111.673 C 303.387 112.941 303.808 113.945 304.418 114.687 C 305.028 115.428 305.803 115.799 306.741 115.799 C 307.813 115.799 308.773 115.303 309.622 114.311 C 310.471 113.318 311.052 112.087 311.364 110.618 C 311.677 109.147 311.833 105.548 311.833 99.821 L 311.833 82.937 L 318.109 82.937 L 318.109 122.959 L 312.28 122.959 Z M 345.291 94.77 L 339.103 96.655 C 338.895 94.57 338.422 93 337.685 91.944 C 336.948 90.889 335.991 90.361 334.815 90.361 C 333.252 90.361 332.004 91.272 331.073 93.093 C 330.143 94.915 329.678 97.961 329.678 102.232 C 329.678 106.98 330.15 110.334 331.096 112.294 C 332.042 114.254 333.311 115.234 334.904 115.234 C 336.096 115.234 337.071 114.662 337.831 113.518 C 338.59 112.375 339.126 110.409 339.439 107.621 L 345.603 109.392 C 344.963 114.166 343.734 117.771 341.918 120.208 C 340.101 122.645 337.667 123.863 334.614 123.863 C 331.144 123.863 328.378 122.017 326.316 118.323 C 324.254 114.63 323.223 109.517 323.223 102.986 C 323.223 96.378 324.258 91.234 326.327 87.554 C 328.397 83.873 331.196 82.032 334.726 82.032 C 337.614 82.032 339.911 83.082 341.617 85.18 C 343.321 87.277 344.546 90.474 345.291 94.77 Z M 360.924 82.937 L 360.924 91.379 L 356.635 91.379 L 356.635 107.508 C 356.635 110.774 356.676 112.678 356.758 113.218 C 356.84 113.758 357.026 114.203 357.316 114.555 C 357.607 114.907 357.961 115.083 358.377 115.083 C 358.958 115.083 359.8 114.744 360.902 114.065 L 361.438 122.281 C 359.978 123.336 358.325 123.863 356.479 123.863 C 355.347 123.863 354.327 123.543 353.419 122.902 C 352.51 122.261 351.844 121.433 351.419 120.415 C 350.995 119.398 350.702 118.022 350.537 116.288 C 350.403 115.057 350.336 112.57 350.336 108.828 L 350.336 91.379 L 347.455 91.379 L 347.455 82.937 L 350.336 82.937 L 350.336 74.986 L 356.635 68.806 L 356.635 82.937 L 360.924 82.937 Z" style="fill: rgb(255, 255, 255); line-height: 71.9527px; text-wrap-mode: nowrap;"/>
    <g>
      <path d="M 46.103 181.793 L 56.886 155.433 L 60.891 155.433 L 72.383 181.793 L 68.149 181.793 L 64.874 173.81 L 53.133 173.81 L 50.048 181.793 L 46.103 181.793 Z M 54.205 170.969 L 63.725 170.969 L 60.794 163.668 C 59.9 161.45 59.236 159.628 58.802 158.203 C 58.445 159.892 57.94 161.57 57.289 163.237 L 54.205 170.969 Z M 74.926 159.155 L 74.926 155.433 L 78.374 155.433 L 78.374 159.155 L 74.926 159.155 Z M 74.926 181.793 L 74.926 162.697 L 78.374 162.697 L 78.374 181.793 L 74.926 181.793 Z M 83.583 181.793 L 83.583 162.697 L 86.685 162.697 L 86.685 165.593 C 87.477 164.238 88.208 163.345 88.879 162.914 C 89.55 162.481 90.287 162.265 91.091 162.265 C 92.253 162.265 93.434 162.613 94.634 163.308 L 93.448 166.312 C 92.604 165.844 91.761 165.61 90.919 165.61 C 90.165 165.61 89.488 165.823 88.889 166.249 C 88.288 166.674 87.86 167.264 87.605 168.019 C 87.222 169.17 87.031 170.429 87.031 171.795 L 87.031 181.793 L 83.583 181.793 Z M 109.883 181.793 L 109.883 179.384 C 108.593 181.277 106.697 182.224 104.195 182.224 C 102.573 182.224 101.081 181.805 99.722 180.966 C 98.362 180.127 97.308 178.955 96.561 177.45 C 95.815 175.946 95.441 174.217 95.441 172.263 C 95.441 170.357 95.78 168.628 96.456 167.076 C 97.133 165.523 98.148 164.334 99.502 163.507 C 100.855 162.679 102.368 162.265 104.041 162.265 C 105.267 162.265 106.359 162.508 107.317 162.994 C 108.275 163.48 109.054 164.112 109.653 164.89 L 109.653 155.433 L 113.082 155.433 L 113.082 181.793 L 109.883 181.793 Z M 98.985 172.263 C 98.985 174.709 99.534 176.537 100.632 177.747 C 101.73 178.958 103.026 179.564 104.52 179.564 C 106.027 179.564 107.307 178.985 108.36 177.828 C 109.414 176.671 109.941 174.906 109.941 172.533 C 109.941 169.92 109.405 168.002 108.332 166.779 C 107.259 165.556 105.937 164.944 104.367 164.944 C 102.835 164.944 101.554 165.532 100.526 166.707 C 99.498 167.881 98.985 169.734 98.985 172.263 Z M 131.833 181.793 L 131.833 178.988 C 130.249 181.145 128.097 182.224 125.377 182.224 C 124.177 182.224 123.057 182.009 122.016 181.577 C 120.976 181.146 120.203 180.604 119.697 179.95 C 119.193 179.297 118.839 178.497 118.635 177.549 C 118.494 176.914 118.424 175.908 118.424 174.529 L 118.424 162.697 L 121.872 162.697 L 121.872 173.288 C 121.872 174.978 121.942 176.117 122.083 176.705 C 122.3 177.556 122.76 178.224 123.462 178.709 C 124.164 179.195 125.033 179.437 126.067 179.437 C 127.101 179.437 128.072 179.189 128.979 178.692 C 129.885 178.194 130.527 177.516 130.904 176.66 C 131.281 175.802 131.469 174.559 131.469 172.929 L 131.469 162.697 L 134.917 162.697 L 134.917 181.793 L 131.833 181.793 Z M 153.59 174.799 L 156.98 175.212 C 156.61 177.405 155.662 179.123 154.136 180.363 C 152.61 181.604 150.736 182.224 148.514 182.224 C 145.73 182.224 143.493 181.37 141.8 179.662 C 140.109 177.954 139.263 175.506 139.263 172.317 C 139.263 170.255 139.627 168.451 140.354 166.905 C 141.082 165.358 142.19 164.198 143.678 163.425 C 145.165 162.652 146.784 162.265 148.533 162.265 C 150.742 162.265 152.549 162.79 153.954 163.839 C 155.359 164.888 156.259 166.377 156.655 168.307 L 153.303 168.792 C 152.983 167.51 152.418 166.545 151.607 165.898 C 150.797 165.251 149.817 164.927 148.668 164.927 C 146.931 164.927 145.519 165.511 144.434 166.68 C 143.349 167.849 142.806 169.698 142.806 172.228 C 142.806 174.792 143.33 176.656 144.377 177.82 C 145.424 178.982 146.79 179.564 148.476 179.564 C 149.829 179.564 150.96 179.174 151.867 178.395 C 152.773 177.615 153.348 176.416 153.59 174.799 Z M 167.457 178.898 L 167.955 181.757 C 166.984 181.949 166.116 182.044 165.35 182.044 C 164.098 182.044 163.128 181.859 162.439 181.488 C 161.749 181.116 161.264 180.627 160.983 180.021 C 160.702 179.416 160.561 178.143 160.561 176.201 L 160.561 165.215 L 158.032 165.215 L 158.032 162.697 L 160.561 162.697 L 160.561 157.968 L 163.99 156.026 L 163.99 162.697 L 167.457 162.697 L 167.457 165.215 L 163.99 165.215 L 163.99 176.381 C 163.99 177.304 164.05 177.897 164.172 178.16 C 164.293 178.424 164.491 178.634 164.766 178.79 C 165.04 178.946 165.433 179.024 165.944 179.024 C 166.327 179.024 166.831 178.982 167.457 178.898 Z M 197.78 178.683 C 196.644 179.869 195.405 180.759 194.064 181.352 C 192.724 181.946 191.275 182.243 189.717 182.243 C 186.843 182.243 184.563 181.332 182.878 179.51 C 181.512 178.023 180.829 176.363 180.829 174.529 C 180.829 172.898 181.387 171.427 182.504 170.114 C 183.621 168.802 185.291 167.648 187.513 166.653 C 186.249 165.287 185.407 164.178 184.986 163.327 C 184.563 162.475 184.352 161.654 184.352 160.863 C 184.352 159.281 185.013 157.905 186.335 156.736 C 187.657 155.567 189.321 154.983 191.325 154.983 C 193.241 154.983 194.808 155.535 196.027 156.638 C 197.247 157.741 197.857 159.065 197.857 160.612 C 197.857 163.117 196.088 165.256 192.551 167.03 L 197.589 173.054 C 198.164 171.999 198.611 170.776 198.93 169.386 L 202.511 170.105 C 201.898 172.407 201.068 174.301 200.021 175.788 C 201.311 177.394 202.773 178.743 204.408 179.833 L 202.091 182.404 C 200.698 181.565 199.261 180.325 197.78 178.683 Z M 190.77 164.944 C 192.264 164.117 193.231 163.392 193.672 162.769 C 194.112 162.145 194.332 161.456 194.332 160.701 C 194.332 159.803 194.029 159.068 193.423 158.499 C 192.816 157.929 192.06 157.645 191.153 157.645 C 190.221 157.645 189.445 157.926 188.826 158.489 C 188.206 159.053 187.897 159.743 187.897 160.558 C 187.897 160.965 188.008 161.393 188.232 161.843 C 188.455 162.293 188.79 162.769 189.238 163.273 L 190.77 164.944 Z M 195.615 176.128 L 189.295 168.775 C 187.431 169.818 186.173 170.786 185.521 171.679 C 184.87 172.572 184.544 173.456 184.544 174.331 C 184.544 175.398 184.998 176.506 185.905 177.657 C 186.812 178.808 188.095 179.384 189.755 179.384 C 190.789 179.384 191.858 179.081 192.963 178.476 C 194.068 177.87 194.952 177.088 195.615 176.128 Z M 219.231 181.793 L 219.231 155.433 L 228.904 155.433 C 231.087 155.433 232.754 155.559 233.903 155.81 C 235.512 156.158 236.885 156.788 238.022 157.699 C 239.503 158.874 240.611 160.375 241.345 162.202 C 242.079 164.03 242.446 166.119 242.446 168.469 C 242.446 170.471 242.197 172.245 241.699 173.791 C 241.2 175.338 240.562 176.618 239.783 177.63 C 239.004 178.643 238.151 179.44 237.226 180.021 C 236.3 180.603 235.183 181.043 233.874 181.343 C 232.565 181.643 231.061 181.793 229.363 181.793 L 219.231 181.793 Z M 222.946 178.683 L 228.941 178.683 C 230.794 178.683 232.246 178.521 233.3 178.197 C 234.353 177.873 235.192 177.417 235.818 176.831 C 236.699 176.003 237.386 174.891 237.877 173.494 C 238.369 172.098 238.614 170.405 238.614 168.415 C 238.614 165.658 238.132 163.54 237.168 162.059 C 236.204 160.579 235.033 159.587 233.653 159.082 C 232.657 158.723 231.055 158.543 228.846 158.543 L 222.946 158.543 L 222.946 178.683 Z M 247.083 181.793 L 247.083 162.697 L 250.187 162.697 L 250.187 165.593 C 250.978 164.238 251.709 163.345 252.379 162.914 C 253.05 162.481 253.787 162.265 254.592 162.265 C 255.753 162.265 256.935 162.613 258.136 163.308 L 256.948 166.312 C 256.106 165.844 255.263 165.61 254.419 165.61 C 253.666 165.61 252.99 165.823 252.389 166.249 C 251.789 166.674 251.361 167.264 251.106 168.019 C 250.723 169.17 250.531 170.429 250.531 171.795 L 250.531 181.793 L 247.083 181.793 Z M 260.028 189.147 L 259.645 186.108 C 260.399 186.3 261.056 186.396 261.618 186.396 C 262.385 186.396 262.998 186.276 263.457 186.037 C 263.917 185.797 264.293 185.461 264.586 185.03 C 264.804 184.706 265.155 183.903 265.64 182.62 C 265.705 182.44 265.807 182.177 265.947 181.828 L 258.227 162.697 L 261.944 162.697 L 266.177 173.756 C 266.726 175.158 267.218 176.632 267.652 178.179 C 268.048 176.693 268.521 175.242 269.07 173.827 L 273.417 162.697 L 276.865 162.697 L 269.127 182.116 C 268.297 184.215 267.652 185.659 267.192 186.45 C 266.579 187.517 265.876 188.299 265.085 188.796 C 264.293 189.294 263.348 189.543 262.25 189.543 C 261.585 189.543 260.845 189.411 260.028 189.147 Z M 293.72 175.643 L 297.282 176.057 C 296.721 178.011 295.68 179.527 294.161 180.607 C 292.641 181.685 290.7 182.224 288.338 182.224 C 285.362 182.224 283.003 181.364 281.26 179.644 C 279.517 177.924 278.646 175.511 278.646 172.407 C 278.646 169.194 279.527 166.701 281.288 164.927 C 283.051 163.152 285.337 162.265 288.146 162.265 C 290.866 162.265 293.088 163.135 294.812 164.873 C 296.536 166.611 297.397 169.056 297.397 172.209 C 297.397 172.401 297.391 172.689 297.379 173.072 L 282.209 173.072 C 282.336 175.17 282.968 176.776 284.104 177.891 C 285.241 179.006 286.658 179.564 288.356 179.564 C 289.621 179.564 290.7 179.252 291.594 178.629 C 292.488 178.005 293.196 177.01 293.72 175.643 Z M 282.399 170.411 L 293.759 170.411 C 293.606 168.805 293.171 167.6 292.456 166.797 C 291.357 165.55 289.933 164.927 288.184 164.927 C 286.601 164.927 285.27 165.425 284.191 166.42 C 283.111 167.414 282.514 168.745 282.399 170.411 Z M 301.577 181.793 L 301.577 162.697 L 304.68 162.697 L 304.68 165.593 C 305.472 164.238 306.203 163.345 306.872 162.914 C 307.543 162.481 308.28 162.265 309.085 162.265 C 310.247 162.265 311.429 162.613 312.629 163.308 L 311.441 166.312 C 310.599 165.844 309.756 165.61 308.912 165.61 C 308.159 165.61 307.483 165.823 306.882 166.249 C 306.283 166.674 305.855 167.264 305.599 168.019 C 305.216 169.17 305.024 170.429 305.024 171.795 L 305.024 181.793 L 301.577 181.793 Z" style="fill: rgb(255, 255, 255); text-wrap-mode: nowrap;"/>
      <path d="M 69.223 209.376 L 72.938 210.257 C 72.159 213.122 70.758 215.306 68.734 216.811 C 66.71 218.315 64.235 219.068 61.311 219.068 C 58.285 219.068 55.824 218.489 53.927 217.332 C 52.031 216.175 50.588 214.5 49.598 212.306 C 48.609 210.113 48.115 207.757 48.115 205.24 C 48.115 202.495 48.673 200.1 49.79 198.056 C 50.907 196.013 52.497 194.46 54.559 193.399 C 56.622 192.338 58.891 191.808 61.368 191.808 C 64.178 191.808 66.54 192.479 68.456 193.822 C 70.372 195.165 71.706 197.053 72.459 199.486 L 68.801 200.295 C 68.15 198.377 67.205 196.981 65.967 196.106 C 64.728 195.231 63.17 194.793 61.293 194.793 C 59.134 194.793 57.33 195.279 55.88 196.249 C 54.432 197.221 53.414 198.525 52.826 200.161 C 52.239 201.797 51.945 203.484 51.945 205.221 C 51.945 207.463 52.293 209.42 52.989 211.092 C 53.685 212.765 54.767 214.015 56.235 214.842 C 57.704 215.669 59.294 216.082 61.005 216.082 C 63.086 216.082 64.848 215.519 66.292 214.392 C 67.735 213.266 68.712 211.594 69.223 209.376 Z M 76.995 218.618 L 76.995 192.258 L 80.443 192.258 L 80.443 218.618 L 76.995 218.618 Z M 99.712 212.468 L 103.275 212.882 C 102.712 214.836 101.671 216.352 100.152 217.432 C 98.632 218.51 96.691 219.049 94.329 219.049 C 91.354 219.049 88.995 218.189 87.251 216.469 C 85.508 214.749 84.637 212.336 84.637 209.231 C 84.637 206.019 85.518 203.526 87.28 201.752 C 89.043 199.977 91.328 199.09 94.137 199.09 C 96.858 199.09 99.08 199.959 100.803 201.698 C 102.527 203.436 103.389 205.881 103.389 209.034 C 103.389 209.226 103.383 209.514 103.37 209.897 L 88.199 209.897 C 88.327 211.995 88.96 213.601 90.096 214.716 C 91.232 215.831 92.65 216.389 94.349 216.389 C 95.612 216.389 96.691 216.077 97.585 215.454 C 98.479 214.83 99.188 213.835 99.712 212.468 Z M 88.391 207.236 L 99.75 207.236 C 99.596 205.63 99.163 204.425 98.448 203.622 C 97.35 202.375 95.926 201.752 94.176 201.752 C 92.592 201.752 91.261 202.25 90.182 203.245 C 89.103 204.239 88.506 205.57 88.391 207.236 Z M 120.876 216.262 C 119.599 217.281 118.37 218.001 117.188 218.421 C 116.007 218.84 114.739 219.049 113.386 219.049 C 111.152 219.049 109.434 218.537 108.233 217.512 C 107.033 216.487 106.432 215.177 106.432 213.583 C 106.432 212.648 106.659 211.794 107.113 211.021 C 107.566 210.248 108.16 209.628 108.894 209.16 C 109.628 208.692 110.455 208.338 111.375 208.099 C 112.052 207.932 113.073 207.77 114.439 207.614 C 117.224 207.302 119.273 206.93 120.589 206.499 C 120.601 206.055 120.607 205.773 120.607 205.654 C 120.607 204.335 120.281 203.406 119.63 202.866 C 118.749 202.135 117.44 201.769 115.703 201.769 C 114.082 201.769 112.885 202.036 112.112 202.57 C 111.34 203.103 110.768 204.047 110.397 205.402 L 107.027 204.97 C 107.333 203.616 107.837 202.522 108.54 201.689 C 109.242 200.856 110.257 200.215 111.585 199.765 C 112.914 199.315 114.452 199.09 116.202 199.09 C 117.938 199.09 119.349 199.282 120.434 199.666 C 121.52 200.049 122.318 200.532 122.829 201.113 C 123.34 201.695 123.697 202.429 123.902 203.316 C 124.017 203.867 124.074 204.862 124.074 206.301 L 124.074 210.616 C 124.074 213.625 124.148 215.529 124.294 216.326 C 124.441 217.123 124.731 217.887 125.166 218.618 L 121.565 218.618 C 121.207 217.946 120.978 217.161 120.876 216.262 Z M 120.589 209.034 C 119.337 209.514 117.46 209.921 114.956 210.257 C 113.539 210.448 112.537 210.664 111.95 210.904 C 111.362 211.144 110.909 211.494 110.589 211.957 C 110.27 212.418 110.11 212.93 110.11 213.494 C 110.11 214.357 110.458 215.076 111.154 215.651 C 111.85 216.226 112.868 216.514 114.21 216.514 C 115.538 216.514 116.719 216.241 117.753 215.696 C 118.788 215.15 119.548 214.404 120.032 213.457 C 120.403 212.726 120.589 211.647 120.589 210.22 L 120.589 209.034 Z M 129.422 218.618 L 129.422 199.522 L 132.525 199.522 L 132.525 202.237 C 134.019 200.139 136.177 199.09 138.999 199.09 C 140.225 199.09 141.352 199.297 142.38 199.711 C 143.408 200.125 144.177 200.667 144.688 201.338 C 145.199 202.009 145.556 202.807 145.761 203.73 C 145.889 204.329 145.953 205.378 145.953 206.876 L 145.953 218.618 L 142.505 218.618 L 142.505 207.002 C 142.505 205.684 142.37 204.698 142.101 204.044 C 141.833 203.391 141.358 202.87 140.675 202.479 C 139.991 202.09 139.19 201.895 138.271 201.895 C 136.803 201.895 135.535 202.333 134.469 203.208 C 133.403 204.083 132.87 205.743 132.87 208.189 L 132.87 218.618 L 129.422 218.618 Z M 151.256 195.98 L 151.256 192.258 L 154.704 192.258 L 154.704 195.98 L 151.256 195.98 Z M 151.256 218.618 L 151.256 199.522 L 154.704 199.522 L 154.704 218.618 L 151.256 218.618 Z M 159.95 218.618 L 159.95 199.522 L 163.054 199.522 L 163.054 202.237 C 164.547 200.139 166.705 199.09 169.528 199.09 C 170.753 199.09 171.88 199.297 172.909 199.711 C 173.936 200.125 174.705 200.667 175.216 201.338 C 175.727 202.009 176.085 202.807 176.289 203.73 C 176.417 204.329 176.481 205.378 176.481 206.876 L 176.481 218.618 L 173.033 218.618 L 173.033 207.002 C 173.033 205.684 172.899 204.698 172.631 204.044 C 172.362 203.391 171.886 202.87 171.204 202.479 C 170.521 202.09 169.719 201.895 168.799 201.895 C 167.331 201.895 166.064 202.333 164.997 203.208 C 163.931 204.083 163.398 205.743 163.398 208.189 L 163.398 218.618 L 159.95 218.618 Z M 181.133 220.2 L 184.485 220.668 C 184.625 221.639 185.015 222.346 185.654 222.79 C 186.509 223.388 187.678 223.688 189.159 223.688 C 190.755 223.688 191.988 223.388 192.856 222.79 C 193.724 222.19 194.311 221.351 194.618 220.272 C 194.797 219.613 194.88 218.229 194.867 216.119 C 193.36 217.785 191.483 218.618 189.236 218.618 C 186.439 218.618 184.274 217.671 182.742 215.777 C 181.21 213.883 180.443 211.611 180.443 208.962 C 180.443 207.14 180.795 205.459 181.497 203.918 C 182.199 202.378 183.218 201.188 184.553 200.349 C 185.886 199.51 187.454 199.09 189.254 199.09 C 191.656 199.09 193.635 200.001 195.193 201.823 L 195.193 199.522 L 198.372 199.522 L 198.372 216.028 C 198.372 219.001 198.05 221.108 197.406 222.349 C 196.76 223.59 195.738 224.569 194.34 225.288 C 192.942 226.008 191.221 226.368 189.179 226.368 C 186.752 226.368 184.792 225.856 183.297 224.831 C 181.804 223.806 181.082 222.262 181.133 220.2 Z M 183.987 208.728 C 183.987 211.234 184.517 213.062 185.577 214.212 C 186.637 215.363 187.965 215.939 189.561 215.939 C 191.144 215.939 192.473 215.366 193.546 214.221 C 194.618 213.077 195.154 211.282 195.154 208.837 C 195.154 206.499 194.602 204.736 193.498 203.55 C 192.393 202.363 191.062 201.769 189.504 201.769 C 187.971 201.769 186.669 202.354 185.596 203.522 C 184.523 204.691 183.987 206.426 183.987 208.728 Z" style="fill: rgb(255, 255, 255); text-wrap-mode: nowrap;"/>
    </g>
  </g>
  <path transform="matrix(1.401031, 0, 0, 1.315177, -15.48522, -12.853269)" style="fill: rgb(255, 255, 255); text-wrap-mode: nowrap;"/>
  <rect x="26" y="26" width="508" height="228" rx="17" ry="17" fill="none" stroke="#FFFFFF" style="stroke-width: 4px;"/>
  <g transform="matrix(1, 0, 0, 1, 3, 0)">
    <g>
      <path d="M 447 63 C 442.834 83.833 437.833 88.833 417 93 C 437.833 97.167 442.834 102.167 447 123 C 451.167 102.167 456.168 97.167 477 93 C 456.168 88.833 451.167 83.833 447 63 Z" fill="#FFFFFF" style="stroke-width: 1; transform-origin: 36.083px 93px;"/>
      <path d="M 489.5 105.5 C 487.114 117.432 483.932 120.614 472 123 C 483.932 125.386 487.114 128.568 489.5 140.5 C 491.886 128.568 495.069 125.386 507 123 C 495.069 120.614 491.886 117.432 489.5 105.5 Z" fill="#FFFFFF" style="stroke-width: 1;"/>
      <path d="M 404.5 105.5 C 402.114 117.432 398.932 120.614 387 123 C 398.932 125.386 402.114 128.568 404.5 140.5 C 406.886 128.568 410.069 125.386 422 123 C 410.069 120.614 406.886 117.432 404.5 105.5 Z" fill="#FFFFFF" style="stroke-width: 1;"/>
    </g>
    <g style="" transform="matrix(0.955612, 0, 0, 1, 19.841408, 0)">
      <path d="M 397 162.905 C 402.357 160.187 418.429 150.219 430.928 148.407 C 445.215 146.594 455.928 159.28 468.429 161.092 C 480.928 162.905 494.322 157.468 497 155.656 C 494.322 158.374 480.928 173.779 468.429 171.967 C 455.928 170.154 445.215 161.092 430.928 159.28 C 418.429 157.468 397.893 162.905 397 162.905 Z" fill="#FFFFFF" style=""/>
      <path d="M 397 202.675 C 402.357 199.957 418.429 189.989 430.928 188.177 C 445.215 186.364 455.928 199.05 468.429 200.862 C 480.928 202.675 494.322 197.238 497 195.426 C 494.322 198.144 480.928 213.549 468.429 211.737 C 455.928 209.924 445.215 200.862 430.928 199.05 C 418.429 197.238 397.893 202.675 397 202.675 Z" fill="#FFFFFF" style="stroke-width: 1;"/>
      <path d="M 397 182.79 C 402.357 180.072 418.429 170.104 430.928 168.292 C 445.215 166.479 455.928 179.165 468.429 180.977 C 480.928 182.79 494.322 177.353 497 175.541 C 494.322 178.259 480.928 193.664 468.429 191.852 C 455.928 190.039 445.215 180.977 430.928 179.165 C 418.429 177.353 397.893 182.79 397 182.79 Z" fill="#FFFFFF" style="stroke-width: 1;"/>
    </g>
  </g>
</svg>